<svg width="50" height="50" viewBox="0 0 50 50" fill="none" xmlns="http://www.w3.org/2000/svg">
<path d="M45.8334 14.5834C45.8334 8.83045 41.1697 4.16675 35.4167 4.16675H25.0001H14.5834C8.83045 4.16675 4.16675 8.83045 4.16675 14.5834V35.4167C4.16675 41.1697 8.83045 45.8334 14.5834 45.8334H35.4167C41.1697 45.8334 45.8334 41.1697 45.8334 35.4167V14.5834Z" stroke="#F9F3A7" stroke-width="2" stroke-linecap="round" stroke-linejoin="round"/>
<path d="M32.487 28.7478C33.2943 27.192 33.5905 25.4212 33.3334 23.6874C33.0711 21.9188 32.247 20.2815 30.9827 19.0172C29.7185 17.7529 28.0811 16.9288 26.3125 16.6666C24.5787 16.4095 22.8079 16.7056 21.2521 17.5129C19.6963 18.3202 18.4346 19.5975 17.6466 21.1632C16.8585 22.7288 16.5842 24.5031 16.8627 26.2337C17.1411 27.9642 17.9582 29.5629 19.1976 30.8023C20.437 32.0417 22.0357 32.8588 23.7663 33.1373C25.4968 33.4157 27.2711 33.1414 28.8368 32.3534C30.4024 31.5653 31.6798 30.3037 32.487 28.7478Z" stroke="#F9F3A7" stroke-width="2" stroke-linecap="round" stroke-linejoin="round"/>
<path d="M36.4583 13.5417H36.4791" stroke="black" stroke-width="2" stroke-linecap="round" stroke-linejoin="round"/>
</svg>
